<?xml version="1.0" encoding="utf-8"?>
<!-- Generator: Adobe Illustrator 25.0.0, SVG Export Plug-In . SVG Version: 6.00 Build 0)  -->
<svg version="1.1" id="图层_1" xmlns="http://www.w3.org/2000/svg" xmlns:xlink="http://www.w3.org/1999/xlink" x="0px" y="0px"
	 viewBox="0 0 236 44" style="enable-background:new 0 0 236 44;" xml:space="preserve">
<style type="text/css">
	.st0{clip-path:url(#SVGID_2_);fill:url(#SVGID_3_);}
	.st1{clip-path:url(#SVGID_5_);fill:url(#SVGID_6_);}
	.st2{fill:#FFFFFF;}
	.st3{fill:none;}
</style>
<g>
	<defs>
		<path id="SVGID_1_" d="M18.4,2.3v8.1l2.5-1.5l8-1.2c-7.5,2.9-9.9,6.1-10.5,6.8V41c0,0.8,0.6,1.4,1.4,1.4h11.2
			c0.7,0,1.4-0.6,1.4-1.4v-4.2C45.1,36,47.1,31,47.1,31c-7.5,4.7-17.8,4.4-20.8,4.6l0-0.4c3.6-0.4,25-0.7,26.5-15.1
			C48,29.8,34.7,33.6,22.6,34.2l0-0.4c0.9,0,3-0.3,5.2-0.7c1.3-0.2,2.7-0.5,4-0.8c11.1-2.7,19.2-9.7,18.9-16.7
			C50.5,9.4,43.3,5.9,34,7c0,0-0.1,0.1-0.1,0.1c0,0.1,0.1,0.2,0.1,0.2c5.2,0.7,9.2,4.2,9.2,8.6c0,5-4.3,10.5-11,13.9V5.3
			c0-0.7-0.6-1.5-1.3-1.6L19.7,1.3c-0.1,0-0.2,0-0.3,0C18.8,1.2,18.4,1.7,18.4,2.3"/>
	</defs>
	<clipPath id="SVGID_2_">
		<use xlink:href="#SVGID_1_"  style="overflow:visible;"/>
	</clipPath>
	
		<linearGradient id="SVGID_3_" gradientUnits="userSpaceOnUse" x1="-308.9885" y1="330.7631" x2="-306.7628" y2="330.7631" gradientTransform="matrix(0 15.8377 15.8377 0 -5202.938 4900.5801)">
		<stop  offset="0" style="stop-color:#00A0E2"/>
		<stop  offset="1" style="stop-color:#152484"/>
	</linearGradient>
	<rect x="18.4" y="1.2" class="st0" width="34.5" height="41.2"/>
</g>
<g>
	<defs>
		<path id="SVGID_4_" d="M20.8,8.5C9.3,11.1,0.2,17.6,0.5,25c0.2,5.6,7.5,9.6,16.1,8.2c-4.6-1.2-7.2-4.1-7.3-7.9
			c-0.2-7,8.6-14.8,19.7-17.5c0.1,0,0.1,0,0.2,0c-0.3,0-0.6,0-0.9,0C25.9,7.7,23.4,8,20.8,8.5"/>
	</defs>
	<clipPath id="SVGID_5_">
		<use xlink:href="#SVGID_4_"  style="overflow:visible;"/>
	</clipPath>
	
		<linearGradient id="SVGID_6_" gradientUnits="userSpaceOnUse" x1="-317.5032" y1="329.5335" x2="-315.2779" y2="329.5335" gradientTransform="matrix(-4.6415 10.1466 10.1466 4.6415 -4797.1641 1701.1809)">
		<stop  offset="0" style="stop-color:#FFF100"/>
		<stop  offset="1.212120e-02" style="stop-color:#FFF100"/>
		<stop  offset="1" style="stop-color:#E60012"/>
	</linearGradient>
	<polygon class="st1" points="39.3,12.4 24.1,45.6 -10,30 5.2,-3.2 	"/>
</g>
<path class="st2" d="M63.4,21.2V9.6h8.8V6.1h4.1v3.5h8.8v7.7c0.1,2.7-1.2,4-3.9,3.9h-4.9V27h-4.1v-5.8H63.4z M67.2,18.8h5.1v-7h-5.1
	V18.8z M81.4,11.8h-5.1v7h3.5c1,0.1,1.6-0.4,1.6-1.4V11.8z"/>
<path class="st2" d="M88.7,11V8.7h3.5c-0.3-0.6-0.5-1.3-0.6-2.2h4C95.8,7.2,96,8,96.3,8.7h5.7c0.3-0.6,0.6-1.3,0.6-2.2h4.1
	c-0.1,0.9-0.3,1.6-0.6,2.2h3.5V11h-8.2v4.7h9.3v2.2h-9c0.9,3,4,5.2,9.3,6.7v2.1c-5.9-1.2-9.8-3.1-11.7-5.7
	c-2.1,2.6-6.1,4.5-12.1,5.7v-2.1c5.7-1.7,8.9-3.9,9.5-6.7h-9.2v-2.2h9.5V11H88.7z"/>
<path class="st2" d="M112.4,11.1V8.9h3V6.2h3.6v2.8h2.9v2.2H119c0.6,2.2,1.6,4.2,2.8,6v3.2c-0.9-1-1.8-2.1-2.8-3.4v10h-3.6v-8.5
	c-0.7,1.3-1.9,2.8-3.5,4.6v-3.2c1.6-2.6,2.7-5.5,3.4-8.7H112.4z M122.8,11.6V9.3h6.7V6.2h4v3.1h2.7v2.2h-2.7v11.9
	c0.1,2.2-1.1,3.2-3.4,3.1h-4v-2.1h2.2c0.8,0,1.2-0.4,1.2-1.2V11.6H122.8z M124.6,19.9c-0.3-1.9-0.9-4-1.8-6.4h3.2
	c1,2,1.7,4.2,2.2,6.4H124.6z"/>
<path class="st2" d="M137,18.6v-2c1.7-1,2.9-2.6,3.4-4.6h3c-0.4,1.2-0.9,2.2-1.3,3.1v11.8h-3.1v-9.1c-0.3,0.1-0.7,0.3-1.1,0.5
	C137.4,18.4,137.2,18.5,137,18.6 M137.1,12.8V11c1.6-1.1,2.7-2.7,3.4-4.8h3.1C142.6,9.7,140.4,11.9,137.1,12.8 M142.8,27.1V25
	c0.9-0.6,1.3-1.6,1.3-3.1v-4.4h7.4v5c0.2-0.1,0.5-0.2,0.9-0.5c0.3-0.2,0.5-0.3,0.6-0.4v2.2c-1.3,1.1-2.8,2-4.3,2.9v-7.2h-1.9v2.3
	C147,23.9,145.7,25.7,142.8,27.1 M143.3,14.4h9.1v2h-9.1V14.4z M143.4,13.5V7.3h2.1v4.2h1.1V6.3h2.6v5.2h0.2c0.7,0.1,1-0.3,0.9-1
	V7.3h2.1V11c0.1,1.7-0.9,2.6-2.8,2.5H143.4z M160.9,26.9c-1.7-1.1-3-2.3-4.1-3.5c-0.8,0.9-2.1,2.1-4,3.5v-2.3c1.1-1.1,2-2.1,2.6-3.1
	c-1-1.7-1.8-4.3-2.2-7.6c-0.2,0.1-0.4,0.2-0.7,0.4v-2.1c1.2-1.3,1.9-3.2,2.1-5.8h2.9c-0.1,0.9-0.2,1.7-0.4,2.3h4.3v2.2h-0.9
	c-0.1,4.7-0.8,8.2-2.3,10.6c0.8,1.1,1.7,2.1,2.8,3.1V26.9z M156.6,18.4c0.6-1.9,1-4.3,1-7.5h-1.6c-0.3,0.6-0.7,1.1-1.2,1.6h0.8
	C155.9,14.8,156.2,16.7,156.6,18.4"/>
<path class="st2" d="M162.3,21v-2.3c1.4-1.4,2.5-2.7,3.2-3.8c-1,0.1-2.2,0.1-3.6,0.1v-2.3c1.6-1.9,2.7-4,3.2-6.5h3.5
	c-0.8,2.6-2.1,4.7-3.7,6.5c0.9,0,1.5,0,1.9-0.1c0.3-0.7,0.7-1.4,0.9-2.2h3.1c-0.7,3.2-2.4,6-5.2,8.2c1.5,0,3-0.2,4.3-0.5v2.2
	C168.1,20.9,165.5,21.1,162.3,21 M162,25.3V23c2.6,0.1,5.3-0.1,8.1-0.6v2.2C167.3,25.1,164.6,25.4,162,25.3 M174.8,22.3v-2.7
	c1-1.6,1.5-4.3,1.4-8.2v-0.5h-2v15.7h-3.4v-18h5.4V6.2h3.5v2.5h5.5v14.9c0.1,2.1-1,3.1-3.3,3h-2.4v-2.1h1.1c0.8,0.1,1.2-0.3,1.1-1.1
	V10.9h-2.1v0.5c-0.1,3.8,0.4,6.6,1.6,8.2v2.7c-1.6-1-2.7-2.3-3.2-4C177.5,19.9,176.4,21.2,174.8,22.3"/>
<path class="st2" d="M196.4,13.3v-0.5c-0.1-0.2-0.1-0.3-0.1-0.4c-2,0.2-5.1,0.4-9.3,0.4v-2.2c1.4-1.1,2.8-2.6,4.1-4.5h4.1
	c-1.3,1.9-2.8,3.4-4.6,4.5c1.2,0,2.7-0.1,4.4-0.2h0.4c-0.1-0.2-0.2-0.6-0.5-1c-0.3-0.5-0.5-0.8-0.6-1.1h2.9c1.2,1.6,2.1,3.2,2.5,4.9
	H196.4z M187.7,26.7V14h10.9v9.9c0.1,1.9-1,2.8-3.2,2.8h-2.3v-2h0.9c0.9,0,1.3-0.3,1.2-0.9v-0.9h-4.1v3.9H187.7z M191.1,17.6h4.1V16
	h-4.1V17.6z M191.1,21.1h4.1v-1.6h-4.1V21.1z M203.3,15.7c-2.2,0.1-3.3-0.8-3.2-2.9V6.2h3.5v2.9c1.5-0.4,2.7-1.2,3.5-2.2h3.4
	c-1.2,2.5-3.5,3.9-6.9,4.2v1.4c-0.1,0.7,0.3,1.1,1.2,1h1.8c0.8,0.1,1.2-0.3,1.1-1.1v-0.5h2.7V13c0.1,1.9-1,2.8-3.2,2.7H203.3z
	 M203.3,26.6c-2.2,0.1-3.3-0.8-3.2-2.7v-7.5h3.6v3.2c1.5-0.5,2.7-1.3,3.4-2.6h3.4c-1.1,2.7-3.4,4.3-6.8,4.7v1.8c0,0.7,0.4,1,1.1,1
	h1.8c0.8,0.1,1.1-0.3,1-1V23h2.9v1.1c0.1,1.7-1,2.6-3.2,2.5H203.3z"/>
<path class="st2" d="M211.5,26.5c1.3-2.8,2.1-5.8,2.4-9.1h3c-0.2,3.2-0.8,6.2-1.8,9.1H211.5z M213.3,10.9c-0.3-1.2-0.8-2.6-1.4-4.3
	h3.1c0.8,1.3,1.3,2.8,1.7,4.3H213.3z M213.6,16.3c0-0.1,0-0.2-0.1-0.3c-0.4-1.7-0.9-3.1-1.4-4h3.2c0.7,1.2,1.2,2.6,1.7,4.3H213.6z
	 M216.6,27v-2.3c1-1.1,1.4-2.7,1.3-4.8V7.1h17.7v2.2h-14.2V19C221.7,22.7,220.1,25.3,216.6,27 M221.1,25.9v-1.6
	c1.3-0.9,2-2.1,2.2-3.7h2.8C225.9,23.2,224.2,25,221.1,25.9 M222.6,19.7v-8.6h2.8c0.2-0.4,0.3-0.9,0.4-1.4h3.6
	c-0.1,0.5-0.2,1-0.3,1.4h5.5v5.6c0.1,2.2-1,3.2-3.3,3.1h-0.9v4.3c0.1,1.9-1.1,2.8-3.4,2.7h-2.1v-2.1h0.8c0.8,0.1,1.2-0.3,1.1-1v-4
	H222.6z M225.8,14.5h5.5v-1.4h-5.5V14.5z M225.8,17.7h4.3c0.8,0.1,1.2-0.3,1.1-1v-0.4h-5.5V17.7z M235.7,25.9
	c-3.1-0.9-4.7-2.7-4.8-5.3h2.7c0.2,1.7,0.9,3,2.1,3.7V25.9z"/>
<polygon class="st2" points="63.2,39.1 68.6,32.9 63.4,32.9 63.4,32 63.4,31.2 71.4,31.2 71.4,31.9 71.4,32.7 65.8,39 71.4,39 
	71.4,39.9 71.4,40.7 63.2,40.7 63.2,39.9 "/>
<path class="st2" d="M79.8,41c-1.5,0-2.7-0.4-3.6-1.3c-0.9-0.9-1.3-2.1-1.3-3.6c0-1.6,0.5-2.8,1.4-3.7c0.9-0.9,2.2-1.4,3.8-1.4
	c1.3,0,2.3,0.3,3.2,0.9c0.8,0.6,1.3,1.4,1.4,2.4h-2.2c-0.1-0.4-0.3-0.8-0.8-1.1c-0.5-0.3-1-0.5-1.5-0.5c-1,0-1.7,0.3-2.2,0.9
	c-0.5,0.6-0.8,1.4-0.8,2.5c0,1.1,0.3,1.9,0.8,2.5c0.5,0.6,1.3,0.9,2.3,0.9h0c0.9,0,1.5-0.3,2-0.9c0.3-0.3,0.5-0.7,0.6-1.2v0h-2.5
	v-1.6h4.4v5.2h-1.5L83,39.5l-0.1,0.2C82.1,40.5,81.1,41,79.8,41L79.8,41z"/>
<path class="st2" d="M98.3,37.4c-0.1,1.1-0.6,2-1.4,2.6c-0.8,0.7-1.9,1-3.1,1c-1.5,0-2.7-0.4-3.5-1.3c-0.9-0.9-1.3-2.1-1.3-3.6
	c0-1.6,0.4-2.8,1.3-3.7c0.9-0.9,2-1.4,3.5-1.4c1.2,0,2.3,0.3,3.1,0.9c0.8,0.6,1.3,1.4,1.4,2.5h-2.2c-0.1-0.5-0.3-0.9-0.7-1.2
	c-0.4-0.3-0.9-0.5-1.6-0.5c-0.8,0-1.5,0.3-1.9,0.9c-0.5,0.6-0.7,1.4-0.7,2.5c0,1,0.2,1.8,0.7,2.4c0.5,0.6,1.1,0.9,1.9,0.9
	c0.6,0,1.2-0.2,1.6-0.5c0.4-0.3,0.7-0.8,0.7-1.4H98.3z"/>
<polygon class="st2" points="111.2,40.7 110.2,40.7 109.2,40.7 109.2,31.2 110.3,31.2 111.5,31.2 115.7,37.9 115.7,31.2 116.7,31.2 
	117.7,31.2 117.7,40.7 116.6,40.7 115.5,40.7 111.2,33.8 "/>
<path class="st2" d="M125.4,31.2h1.3h1.3l3.7,9.6h-1.2h-1.2l-0.7-1.9h-4l-0.7,1.9h-1.1h-1.1L125.4,31.2z M125.2,37.1h2.8l-1.4-3.8h0
	L125.2,37.1z"/>
<polygon class="st2" points="137.6,40.7 136.6,40.7 135.5,40.7 135.5,31.2 136.7,31.2 137.8,31.2 142.1,37.9 142.1,31.2 143.1,31.2 
	144.1,31.2 144.1,40.7 143,40.7 141.9,40.7 137.6,33.8 "/>
<path class="st2" d="M149.8,39.6c-0.9-0.9-1.4-2.1-1.4-3.6c0-1.6,0.5-2.8,1.4-3.7c0.9-0.9,2.1-1.4,3.7-1.4c1.6,0,2.8,0.5,3.7,1.4
	c0.9,0.9,1.4,2.2,1.4,3.7c0,1.5-0.5,2.7-1.4,3.6c-0.9,0.9-2.1,1.3-3.7,1.3C151.9,41,150.7,40.5,149.8,39.6 M155.6,38.4
	c0.5-0.6,0.8-1.4,0.8-2.4c0-1.1-0.3-1.9-0.8-2.5c-0.5-0.6-1.2-0.9-2.1-0.9c-0.9,0-1.6,0.3-2.1,0.9c-0.5,0.6-0.8,1.4-0.8,2.5
	c0,1,0.3,1.8,0.8,2.4c0.5,0.6,1.2,0.9,2.1,0.9C154.4,39.3,155.1,39,155.6,38.4"/>
<polygon class="st2" points="162.9,40.7 162.9,31.2 170.7,31.2 170.7,32 170.7,32.9 165.1,32.9 165.1,34.9 170.3,34.9 170.3,35.7 
	170.3,36.5 165.1,36.5 165.1,39 170.9,39 170.9,39.9 170.9,40.7 "/>
<polygon class="st2" points="177.3,40.7 176.3,40.7 175.3,40.7 175.3,31.2 176.4,31.2 177.6,31.2 181.8,37.9 181.8,31.2 182.8,31.2 
	183.9,31.2 183.9,40.7 182.8,40.7 181.7,40.7 177.3,33.8 "/>
<polygon class="st2" points="188.7,40.7 188.7,31.2 196.4,31.2 196.4,32 196.4,32.9 190.9,32.9 190.9,34.9 196,34.9 196,35.7 
	196,36.5 190.9,36.5 190.9,39 196.6,39 196.6,39.9 196.6,40.7 "/>
<path class="st2" d="M201,31.2h1.1h4.2c1,0,1.8,0.2,2.4,0.7c0.6,0.5,0.9,1.1,0.9,1.9c0,0.9-0.3,1.6-1,2c-0.2,0.1-0.4,0.2-0.6,0.3
	c0.1,0,0.2,0.1,0.3,0.2c0.6,0.3,0.9,0.9,0.9,1.6l0.1,1.6c0,0.3,0,0.5,0.1,0.7c0.1,0.1,0.2,0.2,0.4,0.3v0.3h-2.4
	c-0.1-0.1-0.1-0.3-0.2-0.6c0-0.3-0.1-0.7-0.1-1.1l0-0.9c0-0.4-0.1-0.7-0.4-0.9c-0.3-0.2-0.7-0.3-1.3-0.3h-2.2v3.8h-1.1H201V31.2z
	 M203.2,35.3h2.5c0.6,0,1-0.1,1.3-0.3c0.3-0.2,0.4-0.5,0.4-1c0-0.4-0.1-0.7-0.4-0.9c-0.3-0.2-0.7-0.3-1.2-0.3h-2.6V35.3z"/>
<path class="st2" d="M218.7,41c-1.5,0-2.7-0.4-3.6-1.3c-0.9-0.9-1.3-2.1-1.3-3.6c0-1.6,0.5-2.8,1.4-3.7c0.9-0.9,2.2-1.4,3.8-1.4
	c1.3,0,2.3,0.3,3.2,0.9c0.8,0.6,1.3,1.4,1.4,2.4h-2.2c-0.1-0.4-0.3-0.8-0.8-1.1c-0.5-0.3-1-0.5-1.5-0.5c-1,0-1.7,0.3-2.2,0.9
	c-0.5,0.6-0.8,1.4-0.8,2.5c0,1.1,0.3,1.9,0.8,2.5c0.5,0.6,1.3,0.9,2.3,0.9h0c0.9,0,1.5-0.3,2-0.9c0.3-0.3,0.5-0.7,0.6-1.2v0h-2.5
	v-1.6h4.4v5.2H222l-0.2-1.2l-0.1,0.2C220.9,40.5,219.9,41,218.7,41L218.7,41z"/>
<polygon class="st2" points="230.3,37.1 226.7,31.2 228,31.2 229.3,31.2 231.5,35.3 231.5,35.3 233.5,31.2 234.8,31.2 236,31.2 
	232.5,37.1 232.5,40.7 231.4,40.7 230.3,40.7 "/>
<rect x="-678.1" y="-1500.7" class="st3" width="3191" height="2256.3"/>
</svg>
