<?xml version="1.0" encoding="utf-8"?>
<!-- Generator: Adobe Illustrator 25.0.0, SVG Export Plug-In . SVG Version: 6.00 Build 0)  -->
<svg version="1.1" id="图层_1" xmlns="http://www.w3.org/2000/svg" xmlns:xlink="http://www.w3.org/1999/xlink" x="0px" y="0px"
	 viewBox="0 0 235 44" style="enable-background:new 0 0 235 44;" xml:space="preserve">
<style type="text/css">
	.st0{clip-path:url(#SVGID_1_);fill:url(#SVGID_2_);}
	.st1{clip-path:url(#SVGID_3_);fill:url(#SVGID_4_);}
	.st2{fill:#FFFFFF;}
</style>
<g>
	<defs>
		<path id="SVGID_9_" d="M18.2,2.7v8.1l2.5-1.5l8-1.2c-7.4,2.9-9.8,6.1-10.5,6.8v26.4c0,0.7,0.6,1.4,1.3,1.4h11.1
			c0.7,0,1.3-0.6,1.3-1.4v-4.2c12.8-0.8,14.8-5.8,14.8-5.8C39.4,36,29,35.7,26.1,35.9l0-0.4c3.6-0.4,24.9-0.7,26.4-15.1
			c-4.8,9.7-18,13.5-30.1,14.1l0-0.4c0.9,0,3-0.3,5.1-0.7c1.3-0.2,2.6-0.5,4-0.8c11.1-2.7,19.1-9.6,18.9-16.6
			c-0.2-6.1-7.3-9.6-16.6-8.5c0,0-0.1,0.1-0.1,0.1c0,0.1,0.1,0.2,0.1,0.2C39,8.4,43,11.9,43,16.3c0,5-4.2,10.4-11,13.9V5.8
			c0-0.7-0.6-1.5-1.3-1.6L19.5,1.7c-0.1,0-0.2,0-0.3,0C18.6,1.7,18.2,2.1,18.2,2.7"/>
	</defs>
	<clipPath id="SVGID_1_">
		<use xlink:href="#SVGID_9_"  style="overflow:visible;"/>
	</clipPath>
	
		<linearGradient id="SVGID_2_" gradientUnits="userSpaceOnUse" x1="-309.9632" y1="330.8109" x2="-307.7459" y2="330.8109" gradientTransform="matrix(0 15.8377 15.8377 0 -5203.938 4916.418)">
		<stop  offset="0" style="stop-color:#00A0E1"/>
		<stop  offset="1" style="stop-color:#152483"/>
	</linearGradient>
	<rect x="18.2" y="1.7" class="st0" width="34.3" height="41"/>
</g>
<g>
	<defs>
		<path id="SVGID_12_" d="M20.6,8.9C9.2,11.4,0.1,18,0.4,25.4c0.2,5.6,7.5,9.6,16,8.1c-4.6-1.2-7.2-4.1-7.3-7.9
			c-0.2-7,8.6-14.8,19.6-17.4c0.1,0,0.1,0,0.2,0c-0.3,0-0.6,0-0.9,0C25.7,8.1,23.2,8.4,20.6,8.9"/>
	</defs>
	<clipPath id="SVGID_3_">
		<use xlink:href="#SVGID_12_"  style="overflow:visible;"/>
	</clipPath>
	
		<linearGradient id="SVGID_4_" gradientUnits="userSpaceOnUse" x1="-318.5016" y1="329.6145" x2="-316.2847" y2="329.6145" gradientTransform="matrix(-4.6415 10.1466 10.1466 4.6415 -4802.8057 1711.3275)">
		<stop  offset="0" style="stop-color:#FFF000"/>
		<stop  offset="1.212120e-02" style="stop-color:#FFF000"/>
		<stop  offset="1" style="stop-color:#E50012"/>
	</linearGradient>
	<polygon class="st1" points="39,12.8 23.9,45.8 -10,30.3 5.1,-2.8 	"/>
</g>
<path class="st2" d="M63.1,21.5V10h8.8V6.5H76V10h8.8v7.7c0.1,2.7-1.2,4-3.9,3.9H76v5.8h-4.1v-5.8H63.1z M66.8,19.2h5v-7h-5V19.2z
	 M81,12.2h-5v7h3.5c1,0.1,1.5-0.4,1.5-1.4V12.2z"/>
<path class="st2" d="M88.3,11.4V9.1h3.5c-0.3-0.6-0.5-1.3-0.6-2.2h4c0.1,0.8,0.3,1.5,0.6,2.2h5.7c0.3-0.6,0.6-1.3,0.6-2.2h4.1
	c-0.1,0.9-0.3,1.6-0.6,2.2h3.5v2.3H101v4.7h9.3v2.2h-9c0.9,3,4,5.2,9.3,6.7v2.1c-5.8-1.2-9.7-3.1-11.6-5.6
	c-2.1,2.6-6.1,4.5-12.1,5.6V25c5.7-1.7,8.9-3.9,9.5-6.7h-9.2v-2.2h9.5v-4.7H88.3z"/>
<path class="st2" d="M111.9,11.5V9.3h3V6.6h3.6v2.8h2.9v2.2h-2.9c0.6,2.1,1.5,4.2,2.8,6v3.2c-0.9-1-1.8-2.1-2.8-3.4v9.9h-3.6v-8.4
	c-0.7,1.3-1.9,2.8-3.5,4.6v-3.2c1.6-2.6,2.7-5.5,3.4-8.7H111.9z M122.3,11.9V9.7h6.7V6.6h4v3.1h2.7v2.2H133v11.8
	c0.1,2.2-1.1,3.2-3.4,3.1h-4v-2.1h2.2c0.8,0,1.2-0.4,1.2-1.2V11.9H122.3z M124,20.3c-0.3-1.9-0.9-4-1.8-6.4h3.2c1,2,1.7,4.2,2.2,6.4
	H124z"/>
<path class="st2" d="M136.3,18.9v-2c1.7-1,2.8-2.5,3.4-4.6h3c-0.4,1.2-0.9,2.2-1.3,3.1v11.7h-3.1v-9c-0.3,0.1-0.7,0.3-1.1,0.4
	C136.8,18.8,136.5,18.9,136.3,18.9 M136.4,13.2v-1.8c1.6-1.1,2.7-2.7,3.4-4.7h3.1C141.9,10.1,139.7,12.2,136.4,13.2 M142.1,27.4
	v-2.2c0.9-0.6,1.3-1.6,1.3-3.1v-4.4h7.4v5c0.2-0.1,0.5-0.2,0.9-0.5c0.3-0.2,0.5-0.3,0.6-0.4V24c-1.3,1.1-2.7,2-4.3,2.9v-7.2h-1.9
	v2.3C146.4,24.3,145,26.1,142.1,27.4 M142.6,14.8h9.1v2h-9.1V14.8z M142.7,13.9V7.7h2.1v4.2h1.1V6.7h2.6v5.2h0.2
	c0.7,0.1,1-0.3,0.9-1V7.7h2.1v3.7c0.1,1.7-0.9,2.6-2.8,2.5H142.7z M160.1,27.3c-1.6-1.1-3-2.3-4.1-3.5c-0.8,0.9-2.1,2.1-4,3.5v-2.3
	c1.1-1.1,2-2.1,2.6-3.1c-1-1.7-1.8-4.2-2.2-7.5c-0.2,0.1-0.4,0.2-0.7,0.4v-2.1c1.2-1.3,1.9-3.2,2.1-5.8h2.9
	c-0.1,0.9-0.2,1.7-0.4,2.3h4.3v2.2h-0.9c-0.1,4.7-0.8,8.2-2.3,10.6c0.8,1.1,1.7,2.1,2.8,3.1V27.3z M155.9,18.7c0.6-1.9,1-4.3,1-7.4
	h-1.5c-0.3,0.6-0.7,1.1-1.2,1.6h0.8C155.2,15.1,155.5,17.1,155.9,18.7"/>
<path class="st2" d="M161.5,21.3V19c1.4-1.4,2.5-2.7,3.2-3.8c-1,0.1-2.2,0.1-3.6,0.1v-2.2c1.6-1.9,2.6-4,3.2-6.4h3.5
	c-0.8,2.6-2.1,4.7-3.7,6.4c0.9,0,1.5,0,1.9-0.1c0.3-0.7,0.7-1.4,0.9-2.2h3.1c-0.7,3.2-2.4,5.9-5.2,8.2c1.5,0,3-0.2,4.3-0.4v2.2
	C167.3,21.2,164.8,21.4,161.5,21.3 M161.2,25.6v-2.3c2.6,0.1,5.3-0.1,8-0.6v2.2C166.5,25.4,163.8,25.7,161.2,25.6 M174,22.6v-2.7
	c1-1.6,1.5-4.3,1.4-8.2v-0.4h-2V27h-3.4V9.1h5.4V6.6h3.5v2.5h5.5v14.9c0.1,2.1-1,3.1-3.3,3h-2.4v-2.1h1.1c0.8,0.1,1.2-0.3,1.1-1.1
	V11.3H179v0.4c-0.1,3.8,0.4,6.5,1.5,8.2v2.7c-1.6-1-2.6-2.3-3.2-3.9C176.7,20.2,175.6,21.5,174,22.6"/>
<path class="st2" d="M195.5,13.7v-0.4c-0.1-0.2-0.1-0.3-0.1-0.4c-2,0.2-5.1,0.4-9.3,0.4V11c1.4-1.1,2.8-2.6,4.1-4.5h4.1
	c-1.3,1.9-2.8,3.4-4.5,4.5c1.2,0,2.6-0.1,4.4-0.2h0.4c-0.1-0.2-0.2-0.6-0.5-1c-0.3-0.5-0.5-0.8-0.6-1.1h2.9c1.2,1.6,2.1,3.2,2.5,4.9
	H195.5z M186.9,27.1V14.4h10.8v9.9c0.1,1.9-1,2.8-3.2,2.8h-2.3v-2h0.9c0.9,0,1.3-0.3,1.2-0.9v-0.9h-4.1v3.9H186.9z M190.3,17.9h4.1
	v-1.6h-4.1V17.9z M190.3,21.4h4.1v-1.6h-4.1V21.4z M202.4,16.1c-2.2,0.1-3.3-0.8-3.2-2.9V6.6h3.5v2.9c1.5-0.4,2.7-1.2,3.5-2.2h3.4
	c-1.2,2.5-3.5,3.9-6.9,4.2v1.4c-0.1,0.7,0.3,1,1.2,1h1.8c0.8,0.1,1.2-0.3,1.1-1.1v-0.5h2.7v1.1c0.1,1.9-1,2.7-3.2,2.7H202.4z
	 M202.4,26.9c-2.2,0.1-3.3-0.8-3.2-2.7v-7.4h3.6V20c1.5-0.5,2.6-1.3,3.4-2.6h3.4c-1.1,2.7-3.4,4.2-6.8,4.7v1.8c0,0.7,0.4,1,1.1,1
	h1.8c0.8,0.1,1.1-0.3,1-1v-0.5h2.9v1.1c0.1,1.7-1,2.6-3.2,2.5H202.4z"/>
<path class="st2" d="M210.6,26.8c1.3-2.8,2.1-5.8,2.4-9.1h3c-0.2,3.2-0.8,6.2-1.8,9.1H210.6z M212.4,11.3c-0.3-1.2-0.8-2.6-1.4-4.3
	h3.1c0.8,1.3,1.3,2.7,1.6,4.3H212.4z M212.7,16.7c0-0.1,0-0.2-0.1-0.3c-0.4-1.7-0.9-3.1-1.4-4h3.2c0.7,1.2,1.2,2.6,1.6,4.3H212.7z
	 M215.7,27.3V25c1-1.1,1.4-2.7,1.3-4.7V7.5h17.6v2.2h-14.1v9.8C220.8,23,219.2,25.7,215.7,27.3 M220.2,26.2v-1.6
	c1.3-0.9,2-2.1,2.2-3.7h2.8C224.9,23.6,223.3,25.3,220.2,26.2 M221.6,20.1v-8.6h2.8c0.2-0.4,0.3-0.9,0.4-1.4h3.6
	c-0.1,0.5-0.2,1-0.3,1.4h5.5V17c0.1,2.2-1,3.2-3.3,3h-0.9v4.3c0.1,1.9-1.1,2.7-3.4,2.7h-2.1V25h0.8c0.8,0.1,1.2-0.3,1.1-1v-3.9
	H221.6z M224.8,14.9h5.5v-1.4h-5.5V14.9z M224.8,18h4.3c0.8,0.1,1.2-0.3,1.1-1v-0.4h-5.5V18z M234.7,26.2c-3.1-0.9-4.7-2.7-4.7-5.3
	h2.7c0.2,1.7,0.9,3,2.1,3.7V26.2z"/>
<polygon class="st2" points="62.8,39.3 68.3,33.2 63,33.2 63,32.3 63,31.5 71,31.5 71,32.3 71,33 65.5,39.3 71,39.3 71,40.2 71,41 
	62.8,41 62.8,40.2 "/>
<path class="st2" d="M79.4,41.3c-1.5,0-2.7-0.4-3.6-1.3c-0.9-0.9-1.3-2.1-1.3-3.6c0-1.6,0.5-2.8,1.4-3.7c0.9-0.9,2.2-1.4,3.8-1.4
	c1.3,0,2.3,0.3,3.1,0.9c0.8,0.6,1.3,1.4,1.4,2.3H82c-0.1-0.4-0.3-0.8-0.8-1.1c-0.5-0.3-1-0.5-1.5-0.5c-1,0-1.7,0.3-2.2,0.9
	c-0.5,0.6-0.8,1.4-0.8,2.5c0,1.1,0.3,1.9,0.8,2.5c0.5,0.6,1.3,0.8,2.3,0.8h0c0.8,0,1.5-0.3,2-0.9c0.3-0.3,0.5-0.7,0.6-1.2v0h-2.5
	v-1.6h4.4V41h-1.5l-0.2-1.2l-0.1,0.2C81.7,40.8,80.7,41.3,79.4,41.3L79.4,41.3z"/>
<path class="st2" d="M97.8,37.7c-0.1,1.1-0.6,2-1.4,2.6c-0.8,0.6-1.9,1-3.1,1c-1.5,0-2.6-0.4-3.5-1.3c-0.9-0.9-1.3-2.1-1.3-3.6
	c0-1.6,0.4-2.8,1.3-3.7c0.9-0.9,2-1.4,3.5-1.4c1.2,0,2.3,0.3,3.1,0.9c0.8,0.6,1.3,1.4,1.4,2.5h-2.2c-0.1-0.5-0.3-0.9-0.7-1.2
	c-0.4-0.3-0.9-0.5-1.6-0.5c-0.8,0-1.5,0.3-1.9,0.9c-0.5,0.6-0.7,1.4-0.7,2.5c0,1,0.2,1.8,0.7,2.4c0.5,0.6,1.1,0.9,1.9,0.9
	c0.6,0,1.2-0.2,1.6-0.5c0.4-0.3,0.7-0.8,0.7-1.4H97.8z"/>
<polygon class="st2" points="110.7,41 109.7,41 108.6,41 108.6,31.5 109.8,31.5 110.9,31.5 115.1,38.2 115.1,31.5 116.2,31.5 
	117.2,31.5 117.2,41 116.1,41 115,41 110.7,34.1 "/>
<path class="st2" d="M124.8,31.5h1.3h1.3L131,41h-1.2h-1.2l-0.7-1.9h-4l-0.7,1.9h-1.1h-1.1L124.8,31.5z M124.6,37.4h2.8l-1.4-3.8h0
	L124.6,37.4z"/>
<polygon class="st2" points="137,41 135.9,41 134.9,41 134.9,31.5 136.1,31.5 137.2,31.5 141.4,38.2 141.4,31.5 142.4,31.5 
	143.5,31.5 143.5,41 142.4,41 141.3,41 137,34.1 "/>
<path class="st2" d="M149.1,39.9c-0.9-0.9-1.4-2.1-1.4-3.6c0-1.6,0.5-2.8,1.4-3.7c0.9-0.9,2.1-1.4,3.7-1.4c1.5,0,2.8,0.5,3.7,1.4
	c0.9,0.9,1.4,2.2,1.4,3.7c0,1.5-0.5,2.7-1.4,3.6c-0.9,0.9-2.1,1.3-3.7,1.3C151.3,41.3,150,40.8,149.1,39.9 M154.9,38.7
	c0.5-0.6,0.8-1.4,0.8-2.4c0-1.1-0.3-1.9-0.8-2.5c-0.5-0.6-1.2-0.9-2.1-0.9c-0.9,0-1.6,0.3-2.1,0.9c-0.5,0.6-0.8,1.4-0.8,2.5
	c0,1,0.3,1.8,0.8,2.4c0.5,0.6,1.2,0.9,2.1,0.9C153.7,39.6,154.4,39.3,154.9,38.7"/>
<polygon class="st2" points="162.2,41 162.2,31.5 169.9,31.5 169.9,32.3 169.9,33.2 164.4,33.2 164.4,35.2 169.5,35.2 169.5,36 
	169.5,36.8 164.4,36.8 164.4,39.3 170.2,39.3 170.2,40.2 170.2,41 "/>
<polygon class="st2" points="176.5,41 175.5,41 174.5,41 174.5,31.5 175.7,31.5 176.8,31.5 181,38.2 181,31.5 182,31.5 183,31.5 
	183,41 182,41 180.9,41 176.5,34.1 "/>
<polygon class="st2" points="187.8,41 187.8,31.5 195.5,31.5 195.5,32.3 195.5,33.2 190,33.2 190,35.2 195.1,35.2 195.1,36 
	195.1,36.8 190,36.8 190,39.3 195.8,39.3 195.8,40.2 195.8,41 "/>
<path class="st2" d="M200.2,31.5h1.1h4.2c1,0,1.8,0.2,2.4,0.7c0.6,0.5,0.9,1.1,0.9,1.9c0,0.9-0.3,1.6-1,2c-0.2,0.1-0.4,0.2-0.6,0.3
	c0.1,0,0.2,0.1,0.3,0.2c0.6,0.3,0.9,0.9,0.9,1.6l0.1,1.6c0,0.3,0,0.5,0.1,0.7c0.1,0.1,0.2,0.2,0.4,0.3V41h-2.4
	c-0.1-0.1-0.1-0.3-0.2-0.6c0-0.3-0.1-0.7-0.1-1.1l0-0.9c0-0.4-0.1-0.7-0.4-0.9c-0.3-0.2-0.7-0.3-1.3-0.3h-2.2V41h-1.1h-1.1V31.5z
	 M202.4,35.6h2.5c0.6,0,1-0.1,1.3-0.3c0.3-0.2,0.4-0.5,0.4-1c0-0.4-0.1-0.7-0.4-0.9c-0.3-0.2-0.7-0.3-1.2-0.3h-2.6V35.6z"/>
<path class="st2" d="M217.7,41.3c-1.5,0-2.7-0.4-3.6-1.3c-0.9-0.9-1.3-2.1-1.3-3.6c0-1.6,0.5-2.8,1.4-3.7c0.9-0.9,2.2-1.4,3.8-1.4
	c1.3,0,2.3,0.3,3.1,0.9c0.8,0.6,1.3,1.4,1.4,2.3h-2.2c-0.1-0.4-0.3-0.8-0.8-1.1c-0.5-0.3-1-0.5-1.5-0.5c-1,0-1.7,0.3-2.2,0.9
	c-0.5,0.6-0.8,1.4-0.8,2.5c0,1.1,0.3,1.9,0.8,2.5c0.5,0.6,1.3,0.8,2.3,0.8h0c0.8,0,1.5-0.3,2-0.9c0.3-0.3,0.5-0.7,0.6-1.2v0h-2.5
	v-1.6h4.4V41h-1.5l-0.2-1.2l-0.1,0.2C220,40.8,219,41.3,217.7,41.3L217.7,41.3z"/>
<polygon class="st2" points="229.3,37.4 225.7,31.5 227,31.5 228.3,31.5 230.5,35.6 230.5,35.6 232.5,31.5 233.8,31.5 235,31.5 
	231.5,37.4 231.5,41 230.4,41 229.3,41 "/>
</svg>
