<?xml version="1.0" standalone="no"?><!DOCTYPE svg PUBLIC "-//W3C//DTD SVG 1.1//EN" "http://www.w3.org/Graphics/SVG/1.1/DTD/svg11.dtd"><svg t="1626353737174" class="icon" viewBox="0 0 1024 1024" version="1.1" xmlns="http://www.w3.org/2000/svg" p-id="15999" xmlns:xlink="http://www.w3.org/1999/xlink" width="200" height="200"><defs><style type="text/css"></style></defs><path d="M65 560.83c0-55.83 15.63-111.75 72.11-111.75A393.86 393.86 0 0 1 512 155.21a393.8 393.8 0 0 1 374.89 293.87C942.76 453.53 959 505 959 560.83S943.37 672.58 886.89 677a41.38 41.38 0 0 1-42.52-55.87v-3.93a373.89 373.89 0 0 0 4.45-55.88 343 343 0 0 0-335.25-353.11H512a343 343 0 0 0-335.25 352.62 375.09 375.09 0 0 0 4.45 55.87c3.32 20.09 0 3.93 0 3.93a41.38 41.38 0 0 1-42.51 55.88C80.63 672.58 65 624 65 560.83zM534.06 720.06l-0.5 0.05-1.42 0.23zM534.06 720.06h0.07a17.39 17.39 0 0 0 2-0.33l-1.13 0.2zM576.41 708.47l0.62-0.23a14.7 14.7 0 0 0 1.51-0.72c-0.46 0.21-0.91 0.43-1.37 0.63zM576.41 708.47l-0.7 0.28-0.86 0.42c0.51-0.25 1.04-0.47 1.56-0.7zM490.35 720.13c2.52 0.41 1.33 0.21 0 0zM488.36 719.87z" p-id="16000" fill="#516FD2"></path><path d="M807 560.84c2-165.4-129.59-301.49-295-305.09-165.41 3.6-297 139.69-295 305.09a301.48 301.48 0 0 0 295 307.95 301.49 301.49 0 0 0 295-307.95z m-113.91 113.4a216.14 216.14 0 0 1-39.73 42.27c-25.82 21.08-55.18 37.46-87.62 45.85-38.45 9.95-80.27 9.12-118.12-3.06-46.23-14.88-88.55-45.33-116.7-85.06-7.75-10.92-1.53-26.23 8.59-32.75 11.52-7.43 25.53-1.6 32.75 8.59l0.89 1.23c2.05 2.52 4.12 5 6.28 7.43a218.48 218.48 0 0 0 24 23.06c1.13 0.94 2.28 1.86 3.43 2.78l0.58 0.44q3.48 2.58 7.06 5a207.19 207.19 0 0 0 17.72 10.89q5.38 2.94 10.94 5.56c1.27 0.59 2.56 1.16 3.84 1.74l1.56 0.65a189.3 189.3 0 0 0 23 7.45q6.51 1.67 13.12 2.85c1.38 0.25 2.76 0.47 4.13 0.69 1.07 0 2.27 0.31 3.31 0.42a193.72 193.72 0 0 0 27.78 0.87c4.58-0.19 9.15-0.58 13.72-1.06 2-0.33 2.64-0.41 2.59-0.39q2.63-0.42 5.24-0.91a188.47 188.47 0 0 0 24-6.26c3.49-1.17 6.93-2.46 10.35-3.8 3-1.43 3.33-1.52 2.83-1.23 1.25-0.57 2.5-1.14 3.74-1.73a205.59 205.59 0 0 0 18.88-10.34c5.55-3.42 10.9-7.14 16.14-11l0.65-0.52c1-0.82 2.06-1.66 3.08-2.51q3.29-2.73 6.47-5.58a218 218 0 0 0 19.3-19.63c1.61-1.87 3.1-3.86 4.68-5.75l0.27-0.36c7.75-10.94 20.44-15.09 32.75-8.59 10.66 5.69 15.76 22.52 8.5 32.76z" p-id="16001" fill="#516FD2"></path></svg>