<?xml version="1.0" standalone="no"?><!DOCTYPE svg PUBLIC "-//W3C//DTD SVG 1.1//EN" "http://www.w3.org/Graphics/SVG/1.1/DTD/svg11.dtd"><svg t="1626420893783" class="icon" viewBox="0 0 1024 1024" version="1.1" xmlns="http://www.w3.org/2000/svg" p-id="22094" xmlns:xlink="http://www.w3.org/1999/xlink" width="200" height="200"><defs><style type="text/css"></style></defs><path d="M106.666667 53.333333a32 32 0 0 1 31.701333 27.648L138.666667 85.333333v853.333334a32 32 0 0 1-63.701334 4.352L74.666667 938.666667V85.333333a32 32 0 0 1 32-32z" p-id="22095" fill="#ffffff"></path><path d="M533.461333 85.333333c133.248 39.978667 266.496 42.496 399.786667 7.509334a21.333333 21.333333 0 0 1 26.752 20.650666v510.464a21.333333 21.333333 0 0 1-15.616 20.565334c-137.002667 38.101333-274.048 36.565333-411.050667-4.522667-142.208-42.666667-284.458667-42.666667-426.666666 0V85.333333c142.421333-42.666667 284.672-42.666667 426.794666 0z m212.181334 135.04a32 32 0 0 0-41.941334 2.858667l-233.813333 233.813333-128.256-128.213333-3.242667-2.858667a32 32 0 0 0-41.984 48.128l150.826667 150.826667 3.285333 2.858667a32 32 0 0 0 41.984-2.858667l256.426667-256.426667 2.858667-3.285333a32 32 0 0 0-2.858667-41.984z" p-id="22096" fill="#ffffff"></path></svg>